<svg fill="none" height="800" viewBox="0 0 24 24" width="800" xmlns="http://www.w3.org/2000/svg"><g stroke="#323232" stroke-linejoin="round" stroke-width="2"><path d="m4 10c0-1.88562 0-2.82843.58579-3.41421.58578-.58579 1.52859-.58579 3.41421-.58579h4 4c1.8856 0 2.8284 0 3.4142.58579.5858.58578.5858 1.52859.5858 3.41421v2 2c0 1.8856 0 2.8284-.5858 3.4142s-1.5286.5858-3.4142.5858h-4-4c-1.88562 0-2.82843 0-3.41421-.5858-.58579-.5858-.58579-1.5286-.58579-3.4142v-2z"/><path d="m3 21h18" stroke-linecap="round"/></g></svg>